# xmcd
#
# Track frame offsets:
#	150
#	12701
#	25001
#	36980
#	49315
#	62493
#	75642
#	87253
#	98111
#	109148
#	120976
#	130935
#	143214
#	154076
#	166413
#	177957
#	189807
#	201580
#
# Disc length: 2851 seconds
#
# Revision: 0
# Processed by: cddbd v1.5.1PL2 Copyright (c) Steve Scherf et al.
# Submitted via: dBpowerAMP V4.0
#
DISCID=f00b2112
DTITLE=Hank Williams - 18 Greatest
DYEAR=1900
DGENRE=Country
TTITLE0=Lovesick Blues (Live)
TTITLE1=Your Cheatin' Heart
TTITLE2=Take These Chains From My Heart
TTITLE3=Cold Cold Heart
TTITLE4=Hey Good Lookin'
TTITLE5=Jambalaya (On the Bayou)
TTITLE6=Kaw-Liga
TTITLE7=Why Don't You Love Me
TTITLE8=I'll Never Get Out Of This World Alive
TTITLE9=Settin' The Woods On Fire
TTITLE10=Honky Tonk Blues
TTITLE11=Half As Much
TTITLE12=I Can't Help it if I'm Still in Love With You
TTITLE13=Howlin' At the Moon
TTITLE14=Baby, We're Really In Love
TTITLE15=Why Should We Try Anymore
TTITLE16=You Win Again
TTITLE17=Lost Highway
EXTD=
EXTT0=
EXTT1=
EXTT2=
EXTT3=
EXTT4=
EXTT5=
EXTT6=
EXTT7=
EXTT8=
EXTT9=
EXTT10=
EXTT11=
EXTT12=
EXTT13=
EXTT14=
EXTT15=
EXTT16=
EXTT17=
PLAYORDER=
